<svg xmlns="http://www.w3.org/2000/svg" width="609.249" height="309.969" viewBox="0 0 609.249 309.969">
  <g id="foody" transform="translate(-20.997 143.841)">
    <path id="Path_1" data-name="Path 1" d="M122.413-138.839c-5.373,5.373-14.718,26.4-17.288,39.482-.934,4.205-5.14,9.345-12.616,14.718C78.96-74.826,74.988-68.752,79.894-64.781c1.869,1.635,6.074,2.336,9.345,1.4s5.841-.934,5.841-.467-3.5,13.55-7.943,28.735C76.39,2.736,75.455,8.343,80.128,5.773c2.336-1.4,7.009-14.485,12.382-35.744,8.177-32.24,8.878-33.642,15.419-35.744,13.316-3.972,14.017-4.672,5.14-5.607-8.644-.7-8.878-.934-7.476-8.177.934-4.439,4.439-9.812,8.878-13.316,34.81-26.866,44.154-49.061,21.96-50.93C129.889-144.212,126.618-143.044,122.413-138.839ZM139-126.924c.7,2.8-3.738,8.644-12.382,17.054-7.242,7.009-13.784,12.148-14.485,11.681-1.869-1.869,6.308-25.465,10.513-30.371C127.319-133.933,138.066-133,139-126.924ZM99.752-81.835c-.234,6.074-3.271,12.382-6.074,12.382-5.607,0-6.775-7.242-2.1-10.747C96.481-83.7,99.752-84.4,99.752-81.835Z" transform="translate(75.442)" fill="#313131"/>
    <path id="Path_2" data-name="Path 2" d="M134.076-131.758c-1.869,3.972-12.148,17.054-22.428,28.969L92.959-81.3,75.2-77.324c-21.493,4.439-39.015,12.382-47.892,21.26-11.915,12.148-6.074,29.2,10.046,29.2,13.784-.234,35.277-15.886,52.331-38.08,6.074-7.71,7.71-8.644,17.522-8.644h10.747l-.7,18.923c-.934,20.091,3.5,47.192,11.681,71.021,20.325,59.106,68.451,107.933,127.791,129.66C380.08,191.107,513.244,120.32,542.914-6.069c1.869-8.177,4.205-18.923,4.906-23.829.935-5.373,3.037-9.345,5.373-10.279,5.14-1.869,12.148-7.943,12.148-10.513,0-1.168-2.1-.934-4.672.467a15.975,15.975,0,0,1-9.812,1.168c-4.205-1.4-4.672-3.037-3.738-12.616.7-5.841,2.57-14.017,4.439-17.755,2.8-5.841,4.906-7.009,13.316-7.71,11.681-.935,13.083-4.672,1.869-5.607l-7.943-.7,5.607-13.784c3.271-7.476,5.373-14.251,4.672-14.952-1.869-1.869-2.336-1.168-11.448,15.886-6.541,12.616-9.111,15.419-15.886,17.054C529.831-86.2,527.028-82,538.008-83.632c7.943-1.168,8.878-.934,7.242,2.57-4.205,10.279-7.476,26.4-7.71,39.949-.7,57.938-39.015,122.651-93.215,157.928-65.881,42.519-148.583,43.921-216.567,3.972-21.96-12.849-54.9-44.388-67.75-64.713A204.408,204.408,0,0,1,128-62.606c.467-10.513.7-10.98,7.242-10.98,9.578,0,11.681-6.775,2.57-8.644-3.972-.7-7.009-2.57-7.009-3.972,0-5.14,6.541-26.866,10.279-34.342,4.672-9.578,4.906-18.456.234-18.456C139.45-139,136.179-135.729,134.076-131.758ZM122.629-92.509c-1.4,9.111-2.1,9.578-9.578,9.578-4.439,0-7.943-.467-7.943-1.168,0-2.1,17.054-20.091,17.989-18.923C123.8-102.321,123.563-97.649,122.629-92.509ZM86.418-71.25c0,3.738-21.26,25.7-28.5,29.436-8.41,4.439-20.325,4.205-21.96-.234C33.619-48.121,37.123-57,43.431-61.2,57.215-70.082,86.418-76.857,86.418-71.25Z" transform="translate(0 6.469)" fill="#dc1b4a"/>
    <path id="Path_3" data-name="Path 3" d="M189.665-132.962c-15.886,3.738-28.035,17.522-25,28.735,2.336,10.046,17.054,11.447,28.268,3.037,4.439-3.271,3.972-3.5-5.841-2.336-12.148,1.635-17.288-2.1-15.886-11.214,1.168-8.177,10.046-11.214,32.941-11.214h20.559l-6.308,8.177c-3.5,4.672-10.279,18.923-15.185,32.24-10.046,26.166-16.587,34.576-27.567,35.51-9.111.7-11.447,2.57-5.373,4.439,2.336.934,8.41.234,13.316-1.4,10.513-3.5,22.194-18.923,28.5-37.613a263.783,263.783,0,0,1,11.214-25.932c6.541-12.849,7.943-14.251,17.989-17.054,6.074-1.635,11.447-3.972,12.148-5.14C255.079-135.3,200.412-135.532,189.665-132.962Z" transform="translate(191.349 12.112)" fill="#313131"/>
    <path id="Path_4" data-name="Path 4" d="M125.593-116.347c-7.242,14.017-9.111,16.12-16.821,17.755-10.513,2.57-11.915,7.242-1.869,5.841,7.943-1.168,8.177-.7,3.738,10.046C99.193-54.9,107.37-40.42,127.462-52.569c8.878-5.373,8.177-10.513-.935-6.541-13.083,6.074-16.354-12.616-5.607-30.371,3.738-6.074,6.074-7.476,12.849-7.476,4.439,0,8.177-1.168,8.177-2.336,0-2.336-3.037-3.271-9.812-2.57-5.607.7-5.373-2.57,1.635-16.12C140.544-131.3,140.544-132,136.806-132,135.171-132,130.031-124.991,125.593-116.347Z" transform="translate(105.67 15.822)" fill="#313131"/>
    <path id="Path_5" data-name="Path 5" d="M237.157-116.2c-6.775,4.672-6.541,10.513.935,23.129,7.476,12.849,6.775,20.792-1.635,21.727a11.92,11.92,0,0,1-9.111-2.8C224.074-78.122,218-79.29,218-75.786c0,3.972,12.148,11.915,17.989,11.915,8.41,0,17.054-6.775,17.054-13.083,0-3.271-2.57-10.98-5.841-17.522-7.476-14.485-5.373-20.792,7.009-20.792,4.205,0,8.644-1.168,9.345-2.336C265.892-121.576,243-120.408,237.157-116.2Z" transform="translate(263.238 31.798)" fill="#313131"/>
    <path id="Path_6" data-name="Path 6" d="M141.174-111.524c-25,16.821-28.035,46.257-4.672,46.257,7.943,0,27.8-10.98,25.932-14.251-.934-1.168-3.5-.7-6.541,1.4-6.541,4.439-16.587,4.439-20.325,0-3.5-4.205-3.972-3.738,9.345-9.578C171.312-99.142,181.824-119,161.266-119,155.192-119,148.884-116.664,141.174-111.524Zm19.391-.234c4.439,4.439-1.168,12.849-13.316,19.391-13.083,7.009-14.017,7.242-14.017,2.57,0-5.607,7.242-15.419,15.185-20.091C156.593-115.028,157.294-115.028,160.565-111.758Z" transform="translate(133.075 33.193)" fill="#313131"/>
    <path id="Path_7" data-name="Path 7" d="M156.431-108.487c0,5.841-2.57,17.054-5.841,25-7.009,17.054-6.541,15.185-2.336,16.821,2.57.934,5.841-3.271,11.681-15.653,8.41-16.821,13.316-22.661,19.157-22.661,1.635,0,3.037,2.57,3.037,5.841,0,7.009,3.5,7.709,7.009,1.4,3.5-6.775,2.8-15.886-1.4-17.522-5.373-2.1-11.915,2.336-19.858,13.316l-7.242,9.812,1.635-13.55c1.4-11.447,1.168-13.316-2.1-13.316C157.365-119,156.431-116.664,156.431-108.487Z" transform="translate(165.945 33.193)" fill="#313131"/>
    <path id="Path_8" data-name="Path 8" d="M227.314-117.08C208.624-112.642,189-92.55,189-78.066c0,15.419,14.485,16.12,30.371,1.869l9.111-8.177.7,8.878c.935,11.214,7.71,12.849,17.288,4.439l6.775-6.074L246-75.729c-10.046,1.869-11.214-1.4-5.841-15.185,5.373-14.017,2.8-17.755-4.439-6.308-6.775,11.214-20.091,22.428-26.633,22.428-5.841,0-10.046-3.972-9.345-8.878.234-1.4.467-4.439.7-6.308.467-6.775,16.12-19.624,27.1-22.661,5.841-1.635,10.513-3.738,10.513-4.672C238.061-119.417,237.36-119.417,227.314-117.08Z" transform="translate(224.488 33.376)" fill="#313131"/>
    <path id="Path_9" data-name="Path 9" d="M286.154-114.3c-11.681,5.841-23.362,19.624-25.465,29.9-1.168,5.841-.467,8.644,3.738,13.083,3.037,3.271,7.71,5.841,10.513,5.841,8.644,0,19.858-4.906,22.428-9.812,2.336-4.205,2.1-4.205-2.57-1.869-7.009,3.738-19.624,2.1-20.559-2.8-.467-2.8,1.168-4.439,5.14-5.607a18.089,18.089,0,0,0,8.644-4.672c2.1-2.57,1.4-2.57-3.972.234-9.812,5.14-13.316,4.439-11.447-1.869,2.1-6.308,14.485-19.858,20.325-21.727a9.732,9.732,0,0,1,7.709,1.4c3.738,3.037,2.1,8.177-4.906,15.185-7.476,7.476-1.635,5.373,7.009-2.57C319.328-114.77,307.881-125.283,286.154-114.3Z" transform="translate(319.604 33.402)" fill="#313131"/>
  </g>
</svg>
